{"title":"X-Men Days Of Future Past 2014 TS Ac3-MiLLENiUM","uid":10346488,"size":1846159686,"categoryP":"video","categoryS":"movies","magnet":"?xt=urn:btih:4f8e96f73c1a8a33e13468c46a79a204d4092d04&amp;dn=X-Men+Days+Of+Future+Past+2014+TS+Ac3-MiLLENiUM&amp;tr=udp%3A%2F%2Ftracker.openbittorrent.com%3A80&amp;tr=udp%3A%2F%2Fopen.demonii.com%3A1337&amp;tr=udp%3A%2F%2Ftracker.coppersurfer.tk%3A6969&amp;tr=udp%3A%2F%2Fexodus.desync.com%3A6969","seeders":5,"leechers":0,"uploader":"xxxlavalxxx","files":-1,"time":1402614878,"description":"[IMG]http://i.imgur.com/LleWpRJ.jpg[/IMG]\n\n &lt;a href=&quot;\nhttp://www.imdb.com/title/tt1877832/&quot; rel=&quot;nofollow&quot; target=&quot;_NEW&quot;&gt;\nhttp://www.imdb.com/title/tt1877832/&lt;/a&gt;\n\n\nThe X-Men send Wolverine to the past in a desperate effort to change history and prevent an event that results in doom for both humans and mutants.\n\nDirector: Bryan Singer\nWriters: Simon Kinberg (screenplay), Jane Goldman (story)\nStars: Patrick Stewart, Ian McKellen, Hugh Jackman\nGenres: Action | Adventure | Fantasy | Sci-Fi\n\n\nGeneral\nComplete name                            : X-Men Days Of Future Past 2014 TS Ac3-MiLLENiUM.avi\nSource video                             : 720p [thanks]\nsource Audio                             : EcHo-MiLLENiUM-Exclusive !!!! [awesome bro]\nFormat                                   : AVI\nFormat/Info                              : Audio Video Interleave\nFile size                                : 1.68 GiB\nDuration                                 : 2h 6mn\nOverall bit rate                         : 1 900 Kbps\n\nVideo\nID                                       : 0\nFormat                                   : MPEG-4 Visual\nFormat profile                           : Advanced Simple@L5\nFormat settings, BVOP                    : 2\nFormat settings, QPel                    : Yes\nFormat settings, GMC                     : No warppoints\nFormat settings, Matrix                  : Default (MPEG)\nCodec ID                                 : XVID\nCodec ID/Hint                            : XviD\nDuration                                 : 2h 6mn\nBit rate                                 : 1 700 Kbps\nWidth                                    : 720 pixels\nHeight                                   : 304 pixels\nDisplay aspect ratio                     : 2.35:1\nFrame rate                               : 25.000 fps\nColor space                              : YUV\nChroma subsampling                       : 4:2:0\nBit depth                                : 8 bits\nScan type                                : Progressive\nCompression mode                         : Lossy\nBits/(Pixel*Frame)                       : 0.311\nStream size                              : 1.50 GiB (89%)\nWriting library                          : XviD 1.2.1 (UTC 2008-12-04)\n\nAudio\nID                                       : 1\nFormat                                   : AC-3\nFormat/Info                              : Audio Coding 3\nMode extension                           : CM (complete main)\nCodec ID                                 : 2000\nDuration                                 : 2h 6mn\nBit rate mode                            : Constant\nBit rate                                 : 192 Kbps\nChannel(s)                               : 2 channels\nChannel positions                        : Front: L R\nSampling rate                            : 48.0 KHz\nBit depth                                : 16 bits\nCompression mode                         : Lossy\nStream size                              : 174 MiB (10%)\nAlignment                                : Aligned on interleaves\nInterleave, duration                     : 64 ms (1.60 video frames)\nInterleave, preload duration             : 192 ms\n\n\nscreens\n &lt;a href=&quot;\nhttp://i.imgur.com/36R2Q7V.jpg&quot; rel=&quot;nofollow&quot; target=&quot;_NEW&quot;&gt;\nhttp://i.imgur.com/36R2Q7V.jpg&lt;/a&gt; &lt;a href=&quot;\nhttp://i.imgur.com/SxKVSbB.jpg&quot; rel=&quot;nofollow&quot; target=&quot;_NEW&quot;&gt;\nhttp://i.imgur.com/SxKVSbB.jpg&lt;/a&gt; &lt;a href=&quot;\nhttp://i.imgur.com/UYRs5wB.jpg&quot; rel=&quot;nofollow&quot; target=&quot;_NEW&quot;&gt;\nhttp://i.imgur.com/UYRs5wB.jpg&lt;/a&gt; &lt;a href=&quot;\nhttp://i.imgur.com/2ArvSyI.jpg&quot; rel=&quot;nofollow&quot; target=&quot;_NEW&quot;&gt;\nhttp://i.imgur.com/2ArvSyI.jpg&lt;/a&gt; &lt;a href=&quot;\nhttp://i.imgur.com/t0oZAJQ.jpg&quot; rel=&quot;nofollow&quot; target=&quot;_NEW&quot;&gt;\nhttp://i.imgur.com/t0oZAJQ.jpg&lt;/a&gt; &lt;a href=&quot;\nhttp://i.imgur.com/XvsRNUz.jpg&quot; rel=&quot;nofollow&quot; target=&quot;_NEW&quot;&gt;\nhttp://i.imgur.com/XvsRNUz.jpg&lt;/a&gt; &lt;a href=&quot;\nhttp://i.imgur.com/uilimDt.jpg&quot; rel=&quot;nofollow&quot; target=&quot;_NEW&quot;&gt;\nhttp://i.imgur.com/uilimDt.jpg&lt;/a&gt; &lt;a href=&quot;\nhttp://i.imgur.com/vwtyHXU.jpg&quot; rel=&quot;nofollow&quot; target=&quot;_NEW&quot;&gt;\nhttp://i.imgur.com/vwtyHXU.jpg&lt;/a&gt;","torrent":{"xt":"urn:btih:4f8e96f73c1a8a33e13468c46a79a204d4092d04","amp;dn":"X-Men+Days+Of+Future+Past+2014+TS+Ac3-MiLLENiUM","amp;tr":["udp%3A%2F%2Ftracker.openbittorrent.com%3A80","udp%3A%2F%2Fopen.demonii.com%3A1337","udp%3A%2F%2Ftracker.coppersurfer.tk%3A6969","udp%3A%2F%2Fexodus.desync.com%3A6969"],"infoHash":"4f8e96f73c1a8a33e13468c46a79a204d4092d04","infoHashBuffer":{"type":"Buffer","data":[79,142,150,247,60,26,138,51,225,52,104,196,106,121,162,4,212,9,45,4]},"announce":[],"urlList":[]}}